# Blender v2.81 (sub 16) OBJ File: ''
# www.blender.org
mtllib untitled.mtl
o Plane
v -10.000000 0.000000 10.000000
v 10.000000 0.000000 10.000000
v -10.000000 0.000000 -10.000000
v 10.000000 0.000000 -10.000000
vt 0.000000 0.000000
vt 1.000000 0.000000
vt 1.000000 1.000000
vt 0.000000 1.000000
vn 0.0000 1.0000 0.0000
usemtl None
s off
f 1/1/1 2/2/1 4/3/1 3/4/1
o Plane.001
v 0.000000 0.000000 -1.000000
v -0.866025 0.000000 -0.500000
v -0.866025 0.000000 0.500000
v 0.000000 0.000000 1.000000
v 0.866025 0.000000 0.500000
v 0.866025 0.000000 -0.500000
v 0.000000 5.387321 -0.602231
v -0.521548 5.387321 -0.301116
v -0.521548 5.387321 0.301116
v 0.000000 5.387321 0.602231
v 0.521548 5.387321 0.301116
v 0.521548 5.387321 -0.301116
v 0.621347 9.522381 -0.966866
v 0.329205 9.570472 -0.805199
v 0.329205 9.666652 -0.481865
v 0.621347 9.714743 -0.320197
v 0.913488 9.666652 -0.481865
v 0.913488 9.570472 -0.805199
v 0.621347 11.662696 -3.102531
v 0.457156 11.752151 -3.071166
v 0.457156 11.931065 -3.008435
v 0.621347 12.020521 -2.977070
v 0.785537 11.931065 -3.008435
v 0.785537 11.752151 -3.071166
v 0.086654 11.443007 -5.058891
v 0.031516 8.872902 1.847332
v -0.142865 8.960014 1.790983
v -0.310782 8.931545 1.901281
v -0.304319 8.815964 2.067930
v -0.129938 8.728850 2.124279
v 0.037979 8.757319 2.013980
v -0.636298 7.711602 0.928817
v -0.925410 7.576628 1.102923
v -1.239431 7.531135 0.925618
v -1.264341 7.620615 0.574208
v -0.975230 7.755589 0.400103
v -0.661208 7.801082 0.577408
v -2.925503 10.382859 2.449064
v -3.079123 10.309428 2.563729
v -3.267441 10.291863 2.483936
v -3.302139 10.347730 2.289477
v -3.148519 10.421161 2.174812
v -2.960201 10.438725 2.254606
v -3.498171 12.274986 1.881893
v 0.678622 9.437919 3.498169
v 0.527982 9.566630 3.541910
v 0.541517 9.761305 3.486312
v 0.705692 9.827268 3.386974
v 0.856332 9.698556 3.343234
v 0.842798 9.503881 3.398831
v 1.317141 9.118950 4.778527
vt 0.470861 0.782095
vt 0.417515 0.430492
vt 0.396273 0.432834
vt 0.435589 0.785982
vt 0.756478 0.000000
vt 0.754483 0.354118
vt 0.794291 0.355675
vt 0.822580 0.002586
vt 0.669783 0.000000
vt 0.638160 0.292214
vt 0.677643 0.297612
vt 0.735344 0.008964
vt 0.535862 0.769938
vt 0.456660 0.423171
vt 0.638160 0.800724
vt 0.575336 0.481934
vt 0.535862 0.486832
vt 0.572614 0.808856
vt 0.894064 0.000352
vt 0.829193 0.191208
vt 0.867678 0.190996
vt 0.957968 0.000000
vt 0.385517 0.161732
vt 0.363255 0.162697
vt 0.583683 0.215009
vt 0.561357 0.214771
vt 0.822580 0.375876
vt 0.844680 0.372708
vt 0.716000 0.891996
vt 0.702390 0.735719
vt 0.680305 0.732645
vt 0.676956 0.891996
vt 0.735344 0.636372
vt 0.757553 0.634085
vt 0.667380 0.535888
vt 0.689696 0.535983
vt 0.423787 0.011324
vt 0.419410 0.000000
vt 0.350687 0.157735
vt 0.811781 0.787059
vt 0.822580 0.781689
vt 0.724050 0.732645
vt 0.735344 0.727214
vt 0.434955 0.015049
vt 0.638160 0.005564
vt 0.626982 0.000000
vt 0.951284 0.454267
vt 0.957968 0.448564
vt 0.358370 0.792355
vt 0.369148 0.922748
vt 0.369148 0.785983
vt 0.734613 0.875860
vt 0.734613 0.732645
vt 0.726622 0.877596
vt 0.402205 0.877800
vt 0.402205 0.785983
vt 0.391915 0.871473
vt 0.535862 0.015341
vt 0.716000 0.870973
vt 0.350687 0.790936
vt 0.000000 0.102070
vt 0.019455 0.067500
vt 0.131427 0.168958
vt 0.117170 0.188188
vt 0.931493 0.478814
vt 0.962785 0.454267
vt 0.975798 0.613332
vt 0.953445 0.620859
vt 0.019814 0.797177
vt 0.000000 0.762801
vt 0.125286 0.661852
vt 0.139762 0.680959
vt 0.875982 0.918436
vt 0.848798 0.917935
vt 0.868830 0.783041
vt 0.886880 0.777956
vt 0.989831 0.455305
vt 0.993835 0.619159
vt 0.907537 0.942527
vt 0.909289 0.784923
vt 0.246740 0.510300
vt 0.254417 0.521386
vt 0.922220 0.840835
vt 0.909289 0.844719
vt 0.822580 0.558258
vt 0.832063 0.554187
vt 0.845029 0.557827
vt 0.931710 0.845350
vt 0.261659 0.320250
vt 0.254190 0.331315
vt 0.909289 0.454267
vt 0.255458 0.530034
vt 0.338405 0.424312
vt 0.350687 0.424312
vt 0.993835 0.954407
vt 0.252694 0.340545
vt 0.241386 0.701033
vt 0.242262 0.714220
vt 1.000000 0.297619
vt 0.976245 0.294208
vt 0.965915 0.187687
vt 0.979243 0.187652
vt 0.653482 1.000000
vt 0.638160 0.984823
vt 0.655026 0.860177
vt 0.663750 0.865015
vt 0.676956 0.994822
vt 0.676956 0.863941
vt 0.962603 0.310014
vt 0.957968 0.192764
vt 0.238539 0.136836
vt 0.237925 0.149898
vt 0.327365 0.079417
vt 0.331729 0.089706
vt 0.342025 0.757391
vt 0.338159 0.768126
vt 0.241149 0.158843
vt 0.342211 0.096948
vt 0.238607 0.722660
vt 0.327528 0.775244
vt 0.650235 0.735244
vt 0.663409 0.732645
vt 0.965258 0.071543
vt 0.978590 0.073124
vt 0.412427 0.857175
vt 0.402205 0.848585
vt 0.412427 0.785983
vt 0.350686 0.000000
vt 0.369148 0.794562
vt 0.379252 0.785983
vt 0.391915 0.876707
vt 0.342025 0.847846
vt 1.000000 0.000000
vt 0.391915 0.789815
vn 0.9980 0.0638 0.0000
vn -0.4990 0.0638 0.8643
vn -0.4990 0.0638 -0.8643
vn 0.4990 0.0638 -0.8643
vn 0.4990 0.0638 0.8643
vn -0.9980 0.0638 0.0000
vn 0.4955 -0.1497 -0.8556
vn 0.4963 0.1122 0.8609
vn -0.9808 0.1941 -0.0202
vn 0.9958 -0.0908 0.0094
vn -0.4899 0.2493 0.8354
vn -0.4945 -0.0033 -0.8692
vn 0.9992 0.0325 -0.0232
vn -0.4506 0.6751 0.5841
vn -0.4560 -0.6284 -0.6303
vn 0.4560 -0.6284 -0.6303
vn 0.4506 0.6751 0.5841
vn -0.9992 0.0325 -0.0232
vn 0.4831 -0.8749 -0.0338
vn 0.3994 0.8519 -0.3389
vn -0.9789 -0.0677 0.1930
vn 0.9304 0.1213 -0.3460
vn -0.4557 0.8810 -0.1274
vn -0.4347 -0.8740 0.2170
vn -0.4441 -0.3792 0.8117
vn 0.5036 0.0165 0.8638
vn 0.4133 0.4887 -0.7683
vn -0.9491 -0.3151 -0.0048
vn 0.8986 0.4383 0.0177
vn -0.5185 0.1499 -0.8418
vn 0.2678 0.6740 -0.6885
vn 0.5493 -0.0093 0.8355
vn -0.8194 -0.5699 -0.0623
vn -0.5713 0.0823 -0.8166
vn 0.7777 0.6233 0.0810
vn -0.2934 -0.6222 0.7258
vn -0.5104 -0.2273 -0.8294
vn 0.9603 0.2618 -0.0961
vn -0.3979 0.2238 0.8897
vn 0.3947 -0.0703 -0.9161
vn 0.4319 0.3764 0.8196
vn -0.9854 -0.0671 0.1565
vn 0.3923 0.5758 -0.7174
vn 0.5234 -0.7455 0.4127
vn -0.8767 0.4267 0.2220
vn -0.5113 0.7717 -0.3782
vn 0.9093 -0.3651 -0.1996
vn -0.4210 -0.4165 0.8058
vn -0.4585 -0.6554 0.6001
vn 0.4568 0.6526 -0.6045
vn -0.8953 0.2727 0.3522
vn 0.8934 -0.2749 -0.3554
vn -0.4078 0.8781 -0.2504
vn 0.3997 -0.8863 0.2339
vn -0.6247 -0.7717 0.1193
vn -0.7842 0.2202 0.5801
vn 0.6617 0.7445 0.0882
vn 0.9171 -0.1671 -0.3619
vn 0.1793 -0.9299 -0.3211
vn -0.0650 0.8775 0.4752
usemtl Material.001
s off
f 10/5/2 16/6/2 15/7/2 9/8/2
f 8/9/3 14/10/3 13/11/3 7/12/3
f 6/13/4 12/14/4 11/15/4 5/16/4
f 5/17/5 11/18/5 16/6/5 10/5/5
f 9/19/6 15/20/6 14/21/6 8/22/6
f 7/23/7 13/24/7 12/25/7 6/26/7
f 11/18/8 17/27/8 22/28/8 16/6/8
f 15/20/9 21/29/9 20/30/9 14/21/9
f 13/24/10 19/31/10 18/32/10 12/25/10
f 16/33/11 22/34/11 21/35/11 15/36/11
f 14/10/12 20/37/12 19/38/12 13/11/12
f 12/14/13 18/39/13 17/40/13 11/15/13
f 22/28/14 28/41/14 27/42/14 21/43/14
f 20/37/15 26/44/15 25/45/15 19/38/15
f 18/39/16 24/46/16 23/47/16 17/40/16
f 17/27/17 23/48/17 28/41/17 22/28/17
f 21/29/18 27/49/18 26/50/18 20/30/18
f 19/31/19 25/51/19 24/52/19 18/32/19
f 23/53/20 29/54/20 28/55/20
f 27/56/21 29/57/21 26/58/21
f 25/59/22 29/60/22 24/61/22
f 28/41/23 29/62/23 27/42/23
f 26/58/24 29/57/24 25/63/24
f 24/64/25 29/54/25 23/53/25
f 13/65/26 14/66/26 37/67/26 38/68/26
f 14/69/27 15/70/27 36/71/27 37/72/27
f 16/73/28 11/74/28 40/75/28 41/76/28
f 12/77/29 13/78/29 38/79/29 39/80/29
f 15/70/30 16/81/30 41/82/30 36/71/30
f 11/83/31 12/77/31 39/80/31 40/84/31
f 41/76/32 40/75/32 46/85/32 47/86/32
f 37/72/33 36/71/33 42/87/33 43/88/33
f 39/80/34 38/79/34 44/89/34 45/90/34
f 40/84/35 39/80/35 45/90/35 46/91/35
f 36/71/36 41/82/36 47/92/36 42/87/36
f 38/68/37 37/67/37 43/93/37 44/94/37
f 46/91/38 45/90/38 48/95/38
f 42/96/39 47/86/39 48/97/39
f 44/94/40 43/93/40 48/98/40
f 47/86/41 46/85/41 48/97/41
f 43/88/42 42/87/42 48/99/42
f 45/100/43 44/94/43 48/98/43
f 41/76/44 40/75/44 31/101/44 30/102/44
f 37/103/45 36/104/45 35/105/45 34/106/45
f 39/107/46 38/108/46 33/109/46 32/110/46
f 40/111/47 39/107/47 32/110/47 31/112/47
f 36/104/48 41/113/48 30/114/48 35/105/48
f 38/68/49 37/67/49 34/115/49 33/116/49
f 33/116/50 34/115/50 49/117/50 50/118/50
f 30/102/51 31/101/51 52/119/51 53/120/51
f 32/121/52 33/116/52 50/118/52 51/122/52
f 35/123/53 30/102/53 53/120/53 54/124/53
f 31/112/54 32/110/54 51/125/54 52/126/54
f 34/106/55 35/105/55 54/127/55 49/128/55
f 50/129/56 49/130/56 55/131/56
f 51/122/57 50/118/57 55/132/57
f 53/133/58 52/134/58 55/135/58
f 54/124/59 53/120/59 55/136/59
f 49/128/60 54/127/60 55/137/60
f 52/134/61 51/138/61 55/135/61
